<svg width="24" height="25" viewBox="0 0 24 25" fill="none" xmlns="http://www.w3.org/2000/svg">
<path opacity="0.1" fill-rule="evenodd" clip-rule="evenodd" d="M6.66908 18.6778C9.31801 18.6778 10.6445 15.4747 8.7713 13.6015L1.75246 6.58262C0.591174 5.42133 0.591312 3.53821 1.7526 2.37692C2.91367 1.21585 4.79612 1.21571 5.95719 2.37679L12.9775 9.39713C14.8506 11.2702 18.053 9.94343 18.053 7.29435V3.59858C18.053 1.95632 19.3845 0.624999 21.0265 0.625C22.6686 0.625001 24.0001 1.95632 24.0001 3.59858L24.0001 21.6514C24.0001 23.2937 22.669 24.625 21.0269 24.625H2.97331C1.33127 24.625 0.000122258 23.2937 0.00012207 21.6514C0.000121883 20.0092 1.33126 18.6778 2.97331 18.6778H6.66908Z" fill="black"/>
</svg>