<svg width="20" height="20" viewBox="0 0 20 20" fill="none" xmlns="http://www.w3.org/2000/svg">
  <path d="M4.30177 0.733591C3.31768 -0.24453 1.72216 -0.24453 0.738067 0.733591C-0.246022 1.71171 -0.246022 3.29756 0.738067 4.27568L6.49732 10L0.738103 15.7243C-0.245987 16.7024 -0.245986 18.2883 0.738102 19.2664C1.72219 20.2445 3.31771 20.2445 4.3018 19.2664L10.061 13.5421L15.6982 19.1451C16.6823 20.1232 18.2778 20.1232 19.2619 19.1451C20.246 18.167 20.246 16.5811 19.2619 15.603L13.6247 10L19.2619 4.39699C20.246 3.41887 20.246 1.83302 19.2619 0.854898C18.2778 -0.123224 16.6823 -0.123224 15.6982 0.854898L10.061 6.45793L4.30177 0.733591Z" fill="#E1DCCF" />
</svg>