<svg width="120" height="36" xmlns="http://www.w3.org/2000/svg"><path d="M40.943 13.397c-2.456 0-4.308 1.936-4.308 4.506 0 2.57 1.872 4.506 4.353 4.506 2.455 0 4.308-1.935 4.308-4.506 0-2.57-1.871-4.506-4.353-4.506ZM53.392 0H0v36h53.392L66 18.039 53.392 0ZM27.918 23.603l-.124.104c-1.993 1.68-4.301 2.532-6.858 2.532-2.419 0-4.6-.84-6.143-2.365-1.528-1.513-2.371-3.633-2.371-5.97 0-2.246.856-4.336 2.412-5.885 1.58-1.58 3.736-2.45 6.083-2.45 2.646 0 4.476.638 6.327 2.201l.264.223-2.602 3.114-.27-.224c-1.135-.94-2.127-1.486-3.835-1.486-2.266 0-4.109 2.022-4.109 4.506 0 2.637 1.83 4.55 4.352 4.55 1.11 0 2.097-.262 2.867-.762v-1.674h-3.437v-3.633h7.444v7.219Zm19.205.188c-1.602 1.579-3.796 2.448-6.18 2.448-2.383 0-4.573-.863-6.158-2.432-1.562-1.544-2.422-3.638-2.422-5.904a8.18 8.18 0 0 1 2.444-5.887c1.602-1.58 3.797-2.445 6.18-2.445 2.385 0 4.573.864 6.159 2.432 1.56 1.545 2.42 3.639 2.42 5.904a8.18 8.18 0 0 1-2.443 5.884Z"/><path fill-rule="evenodd" clip-rule="evenodd" d="M120 0H67v36h53V0ZM83.021 9.582h3.987v16.654H83.02V9.582Zm8.866 3.42h4.126V26.22h3.995V13.003h4.455V9.57H91.887v3.432Z"/></svg>